<svg width="24" height="24" viewBox="0 0 24 24" fill="none" xmlns="http://www.w3.org/2000/svg">
<path d="M7 11.5001C6.72386 11.5001 6.5 11.724 6.5 12.0001C6.5 12.2763 6.72386 12.5001 7 12.5001V11.5001ZM12 12.5001C12.2761 12.5001 12.5 12.2763 12.5 12.0001C12.5 11.724 12.2761 11.5001 12 11.5001V12.5001ZM12 11.5001C11.7239 11.5001 11.5 11.724 11.5 12.0001C11.5 12.2763 11.7239 12.5001 12 12.5001V11.5001ZM17 12.5001C17.2761 12.5001 17.5 12.2763 17.5 12.0001C17.5 11.724 17.2761 11.5001 17 11.5001V12.5001ZM7 12.5001H12V11.5001H7V12.5001ZM12 12.5001H17V11.5001H12V12.5001Z" fill="#B1A8A9"/>
</svg>
