<svg width="31" height="31" viewBox="0 0 31 31" fill="none" xmlns="http://www.w3.org/2000/svg">
<path d="M16.7915 2.90625C16.2565 2.90625 15.8228 3.33997 15.8228 3.875C15.8228 4.41003 16.2565 4.84375 16.7915 4.84375C19.0598 4.84375 21.4091 5.98764 23.2107 7.78918C25.0122 9.59072 26.1561 11.9401 26.1561 14.2083C26.1561 14.7434 26.5898 15.1771 27.1248 15.1771C27.6599 15.1771 28.0936 14.7434 28.0936 14.2083C28.0936 11.3099 26.6541 8.49262 24.5807 6.41916C22.5072 4.3457 19.6899 2.90625 16.7915 2.90625Z" fill="white"/>
<path d="M11.5532 5.01668C10.166 3.62951 7.91698 3.62951 6.5298 5.01668L5.23814 6.30835C4.57199 6.97449 4.19775 7.87798 4.19775 8.82005V11.1629C4.19775 11.5803 4.27059 12.0197 4.45848 12.4427C4.99791 13.6574 6.69686 17.0226 10.337 20.6628C13.9772 24.303 17.3424 26.0019 18.5571 26.5414C18.9802 26.7292 19.4195 26.8021 19.8369 26.8021H22.1798C23.1219 26.8021 24.0253 26.4278 24.6915 25.7617L25.9832 24.47C27.3703 23.0829 27.3703 20.8338 25.9832 19.4466L24.1407 17.6042C22.9434 16.4069 21.0675 16.2212 19.6587 17.1604L18.7932 17.7374C18.3034 18.0639 17.7134 18.0832 17.2635 17.8174C16.4405 17.3311 15.4851 16.6985 14.8932 16.1067C14.3013 15.5148 13.6688 14.5594 13.1824 13.7364C12.9166 13.2865 12.936 12.6964 13.2625 12.2067L13.8395 11.3412C14.7787 9.93233 14.5929 8.05641 13.3957 6.85913L11.5532 5.01668Z" fill="white"/>
<path d="M18.0832 8.07292C17.5481 8.07292 17.1144 8.50664 17.1144 9.04167C17.1144 9.57669 17.5481 10.0104 18.0832 10.0104C18.7369 10.0104 19.4716 10.347 20.0622 10.9376C20.6528 11.5282 20.9894 12.263 20.9894 12.9167C20.9894 13.4517 21.4231 13.8854 21.9582 13.8854C22.4932 13.8854 22.9269 13.4517 22.9269 12.9167C22.9269 11.6328 22.2948 10.4301 21.4322 9.56759C20.5697 8.70507 19.367 8.07292 18.0832 8.07292Z" fill="white"/>
</svg>
