<svg width="115" height="115" viewBox="0 0 115 115" fill="none" xmlns="http://www.w3.org/2000/svg">
<g filter="url(#filter0_d_2003_1930)">
<g filter="url(#filter1_d_2003_1930)">
<circle cx="54.5" cy="54.5" r="27.5" fill="black"/>
</g>
<path d="M54.7915 42.9062C54.2565 42.9062 53.8228 43.34 53.8228 43.875C53.8228 44.41 54.2565 44.8438 54.7915 44.8438C57.0598 44.8438 59.4091 45.9876 61.2107 47.7892C63.0122 49.5907 64.1561 51.9401 64.1561 54.2083C64.1561 54.7434 64.5898 55.1771 65.1248 55.1771C65.6599 55.1771 66.0936 54.7434 66.0936 54.2083C66.0936 51.3099 64.6541 48.4926 62.5807 46.4192C60.5072 44.3457 57.6899 42.9062 54.7915 42.9062Z" fill="white"/>
<path d="M49.5532 45.0167C48.166 43.6295 45.917 43.6295 44.5298 45.0167L43.2381 46.3083C42.572 46.9745 42.1978 47.878 42.1978 48.8201V51.1629C42.1978 51.5803 42.2706 52.0197 42.4585 52.4427C42.9979 53.6574 44.6969 57.0226 48.337 60.6628C51.9772 64.303 55.3424 66.0019 56.5571 66.5414C56.9802 66.7292 57.4195 66.8021 57.8369 66.8021H60.1798C61.1219 66.8021 62.0253 66.4278 62.6915 65.7617L63.9832 64.47C65.3703 63.0829 65.3703 60.8338 63.9832 59.4466L62.1407 57.6042C60.9434 56.4069 59.0675 56.2212 57.6587 57.1604L56.7932 57.7374C56.3034 58.0639 55.7134 58.0832 55.2635 57.8174C54.4405 57.3311 53.4851 56.6985 52.8932 56.1067C52.3013 55.5148 51.6688 54.5594 51.1824 53.7364C50.9166 53.2865 50.936 52.6964 51.2625 52.2067L51.8395 51.3412C52.7787 49.9323 52.5929 48.0564 51.3957 46.8591L49.5532 45.0167Z" fill="white"/>
<path d="M56.0832 48.0729C55.5481 48.0729 55.1144 48.5066 55.1144 49.0417C55.1144 49.5767 55.5481 50.0104 56.0832 50.0104C56.7369 50.0104 57.4716 50.347 58.0622 50.9376C58.6528 51.5282 58.9894 52.263 58.9894 52.9167C58.9894 53.4517 59.4231 53.8854 59.9582 53.8854C60.4932 53.8854 60.9269 53.4517 60.9269 52.9167C60.9269 51.6328 60.2948 50.4301 59.4322 49.5676C58.5697 48.7051 57.367 48.0729 56.0832 48.0729Z" fill="white"/>
</g>
<defs>
<filter id="filter0_d_2003_1930" x="0" y="0" width="115" height="115" filterUnits="userSpaceOnUse" color-interpolation-filters="sRGB">
<feFlood flood-opacity="0" result="BackgroundImageFix"/>
<feColorMatrix in="SourceAlpha" type="matrix" values="0 0 0 0 0 0 0 0 0 0 0 0 0 0 0 0 0 0 127 0" result="hardAlpha"/>
<feOffset dx="3" dy="3"/>
<feGaussianBlur stdDeviation="15"/>
<feComposite in2="hardAlpha" operator="out"/>
<feColorMatrix type="matrix" values="0 0 0 0 0.232275 0 0 0 0 0.232275 0 0 0 0 0.232275 0 0 0 0.15 0"/>
<feBlend mode="normal" in2="BackgroundImageFix" result="effect1_dropShadow_2003_1930"/>
<feBlend mode="normal" in="SourceGraphic" in2="effect1_dropShadow_2003_1930" result="shape"/>
</filter>
<filter id="filter1_d_2003_1930" x="0" y="0" width="115" height="115" filterUnits="userSpaceOnUse" color-interpolation-filters="sRGB">
<feFlood flood-opacity="0" result="BackgroundImageFix"/>
<feColorMatrix in="SourceAlpha" type="matrix" values="0 0 0 0 0 0 0 0 0 0 0 0 0 0 0 0 0 0 127 0" result="hardAlpha"/>
<feOffset dx="3" dy="3"/>
<feGaussianBlur stdDeviation="15"/>
<feComposite in2="hardAlpha" operator="out"/>
<feColorMatrix type="matrix" values="0 0 0 0 0.232275 0 0 0 0 0.232275 0 0 0 0 0.232275 0 0 0 0.15 0"/>
<feBlend mode="normal" in2="BackgroundImageFix" result="effect1_dropShadow_2003_1930"/>
<feBlend mode="normal" in="SourceGraphic" in2="effect1_dropShadow_2003_1930" result="shape"/>
</filter>
</defs>
</svg>
