<svg width="30" height="25" viewBox="0 0 30 25" fill="none" xmlns="http://www.w3.org/2000/svg">
<path d="M2.06234 10.7624C10.1154 7.23439 15.4853 4.90848 18.1722 3.78472C25.8438 0.576142 27.4379 0.0187791 28.4769 0.000178427C28.7054 -0.0036732 29.2163 0.0532744 29.5473 0.323326C29.8268 0.551352 29.9037 0.859384 29.9405 1.07558C29.9773 1.29177 30.0231 1.78427 29.9867 2.16909C29.5709 6.56138 27.7721 17.2203 26.857 22.1398C26.4697 24.2214 25.7073 24.9193 24.9691 24.9876C23.3649 25.1361 22.1467 23.9216 20.593 22.8974C18.1617 21.2948 16.7882 20.2972 14.4282 18.7334C11.7008 16.9261 13.4688 15.9328 15.0232 14.3094C15.4299 13.8846 22.4981 7.41993 22.6349 6.83348C22.652 6.76014 22.6679 6.48674 22.5063 6.34238C22.3448 6.19802 22.1064 6.24738 21.9344 6.28665C21.6905 6.3423 17.8065 8.92374 10.2823 14.031C9.17983 14.7922 8.18124 15.1631 7.28655 15.1437C6.30022 15.1223 4.40291 14.5829 2.99246 14.1219C1.26249 13.5564 -0.112459 13.2574 0.00726778 12.2971C0.0696291 11.7969 0.754654 11.2853 2.06234 10.7624Z" fill="white"/>
</svg>
