<svg width="115" height="115" viewBox="0 0 115 115" fill="none" xmlns="http://www.w3.org/2000/svg">
<g filter="url(#filter0_d_2003_1947)">
<rect x="27" y="27" width="55" height="55" rx="27.5" fill="#0DC143"/>
<path d="M66.3787 43.6703C63.4142 40.6432 59.3161 39 55.1308 39C46.2371 39 39.0872 46.1784 39.1744 54.9135C39.1744 57.6811 39.9591 60.3622 41.267 62.7838L39 71L47.4578 68.8378C49.812 70.1351 52.4278 70.7405 55.0436 70.7405C63.8501 70.7405 71 63.5622 71 54.827C71 50.5892 69.3433 46.6108 66.3787 43.6703ZM55.1308 68.0595C52.7766 68.0595 50.4223 67.4541 48.4169 66.2432L47.8937 65.9838L42.8365 67.2811L44.1444 62.3514L43.7956 61.8324C39.9591 55.6919 41.7902 47.5622 48.0681 43.7568C54.346 39.9514 62.455 41.7676 66.2916 47.9946C70.1281 54.2216 68.297 62.2649 62.0191 66.0703C60.0136 67.3676 57.5722 68.0595 55.1308 68.0595ZM62.8038 58.4595L61.8447 58.027C61.8447 58.027 60.4496 57.4216 59.5777 56.9892C59.4905 56.9892 59.4033 56.9027 59.3161 56.9027C59.0545 56.9027 58.8801 56.9892 58.7057 57.0757C58.7057 57.0757 58.6185 57.1622 57.3978 58.5459C57.3106 58.7189 57.1362 58.8054 56.9619 58.8054H56.8747C56.7875 58.8054 56.6131 58.7189 56.5259 58.6324L56.0899 58.4595C55.1308 58.027 54.2589 57.5081 53.5613 56.8162C53.3869 56.6432 53.1253 56.4703 52.951 56.2973C52.3406 55.6919 51.7302 55 51.2943 54.2216L51.2071 54.0486C51.1199 53.9622 51.1199 53.8757 51.0327 53.7027C51.0327 53.5297 51.0327 53.3568 51.1199 53.2703C51.1199 53.2703 51.4687 52.8378 51.7302 52.5784C51.9046 52.4054 51.9918 52.1459 52.1662 51.973C52.3406 51.7135 52.4278 51.3676 52.3406 51.1081C52.2534 50.6757 51.2071 48.3405 50.9455 47.8216C50.7711 47.5622 50.5967 47.4757 50.3351 47.3892H50.0736C49.8992 47.3892 49.6376 47.3892 49.376 47.3892C49.2016 47.3892 49.0272 47.4757 48.8529 47.4757L48.7657 47.5622C48.5913 47.6486 48.4169 47.8216 48.2425 47.9081C48.0681 48.0811 47.9809 48.2541 47.8065 48.427C47.1962 49.2054 46.8474 50.1568 46.8474 51.1081C46.8474 51.8 47.0218 52.4919 47.2834 53.0973L47.3706 53.3568C48.1553 55 49.2016 56.4703 50.5967 57.7676L50.9455 58.1135C51.2071 58.373 51.4687 58.5459 51.6431 58.8054C53.4741 60.3622 55.5668 61.4865 57.921 62.0919C58.1826 62.1784 58.5313 62.1784 58.7929 62.2649C59.0545 62.2649 59.4033 62.2649 59.6649 62.2649C60.1008 62.2649 60.624 62.0919 60.9728 61.9189C61.2343 61.7459 61.4087 61.7459 61.5831 61.573L61.7575 61.4C61.9319 61.227 62.1063 61.1405 62.2807 60.9676C62.455 60.7946 62.6294 60.6216 62.7166 60.4486C62.891 60.1027 62.9782 59.6703 63.0654 59.2378C63.0654 59.0649 63.0654 58.8054 63.0654 58.6324C63.0654 58.6324 62.9782 58.5459 62.8038 58.4595Z" fill="white"/>
</g>
<defs>
<filter id="filter0_d_2003_1947" x="0" y="0" width="115" height="115" filterUnits="userSpaceOnUse" color-interpolation-filters="sRGB">
<feFlood flood-opacity="0" result="BackgroundImageFix"/>
<feColorMatrix in="SourceAlpha" type="matrix" values="0 0 0 0 0 0 0 0 0 0 0 0 0 0 0 0 0 0 127 0" result="hardAlpha"/>
<feOffset dx="3" dy="3"/>
<feGaussianBlur stdDeviation="15"/>
<feComposite in2="hardAlpha" operator="out"/>
<feColorMatrix type="matrix" values="0 0 0 0 0.232275 0 0 0 0 0.232275 0 0 0 0 0.232275 0 0 0 0.15 0"/>
<feBlend mode="normal" in2="BackgroundImageFix" result="effect1_dropShadow_2003_1947"/>
<feBlend mode="normal" in="SourceGraphic" in2="effect1_dropShadow_2003_1947" result="shape"/>
</filter>
</defs>
</svg>
