<svg width="24" height="25" viewBox="0 0 24 25" fill="none" xmlns="http://www.w3.org/2000/svg">
<path d="M4.16989 15.8L8.69989 20.33C10.5599 22.19 13.5799 22.19 15.4499 20.33L19.8399 15.94C21.6999 14.08 21.6999 11.06 19.8399 9.19005L15.2999 4.67005C14.3499 3.72005 13.0399 3.21005 11.6999 3.28005L6.69989 3.52005C4.69989 3.61005 3.10989 5.20005 3.00989 7.19005L2.76989 12.19C2.70989 13.54 3.21989 14.85 4.16989 15.8Z" stroke="#737373" stroke-linecap="round" stroke-linejoin="round"/>
<path d="M9.5 12.5C10.8807 12.5 12 11.3807 12 10C12 8.61929 10.8807 7.5 9.5 7.5C8.11929 7.5 7 8.61929 7 10C7 11.3807 8.11929 12.5 9.5 12.5Z" stroke="#737373" stroke-linecap="round"/>
</svg>
