<svg width="32" height="32" viewBox="0 0 32 32" fill="none" xmlns="http://www.w3.org/2000/svg">
<path d="M27.3787 4.67027C24.4142 1.64324 20.3161 0 16.1308 0C7.23706 0 0.0871935 7.17838 0.174387 15.9135C0.174387 18.6811 0.959128 21.3622 2.26703 23.7838L0 32L8.45777 29.8378C10.812 31.1351 13.4278 31.7405 16.0436 31.7405C24.8501 31.7405 32 24.5622 32 15.827C32 11.5892 30.3433 7.61081 27.3787 4.67027ZM16.1308 29.0595C13.7766 29.0595 11.4223 28.4541 9.41689 27.2432L8.89373 26.9838L3.83651 28.2811L5.14441 23.3514L4.79564 22.8324C0.959128 16.6919 2.79019 8.56216 9.06812 4.75676C15.346 0.951351 23.455 2.76757 27.2916 8.99459C31.1281 15.2216 29.297 23.2649 23.0191 27.0703C21.0136 28.3676 18.5722 29.0595 16.1308 29.0595ZM23.8038 19.4595L22.8447 19.027C22.8447 19.027 21.4496 18.4216 20.5777 17.9892C20.4905 17.9892 20.4033 17.9027 20.3161 17.9027C20.0545 17.9027 19.8801 17.9892 19.7057 18.0757C19.7057 18.0757 19.6185 18.1622 18.3978 19.5459C18.3106 19.7189 18.1362 19.8054 17.9619 19.8054H17.8747C17.7875 19.8054 17.6131 19.7189 17.5259 19.6324L17.0899 19.4595C16.1308 19.027 15.2589 18.5081 14.5613 17.8162C14.3869 17.6432 14.1253 17.4703 13.951 17.2973C13.3406 16.6919 12.7302 16 12.2943 15.2216L12.2071 15.0486C12.1199 14.9622 12.1199 14.8757 12.0327 14.7027C12.0327 14.5297 12.0327 14.3568 12.1199 14.2703C12.1199 14.2703 12.4687 13.8378 12.7302 13.5784C12.9046 13.4054 12.9918 13.1459 13.1662 12.973C13.3406 12.7135 13.4278 12.3676 13.3406 12.1081C13.2534 11.6757 12.2071 9.34054 11.9455 8.82162C11.7711 8.56216 11.5967 8.47568 11.3351 8.38919H11.0736C10.8992 8.38919 10.6376 8.38919 10.376 8.38919C10.2016 8.38919 10.0272 8.47568 9.85286 8.47568L9.76567 8.56216C9.59128 8.64865 9.41689 8.82162 9.24251 8.90811C9.06812 9.08108 8.98093 9.25405 8.80654 9.42703C8.19619 10.2054 7.84741 11.1568 7.84741 12.1081C7.84741 12.8 8.0218 13.4919 8.28338 14.0973L8.37057 14.3568C9.15531 16 10.2016 17.4703 11.5967 18.7676L11.9455 19.1135C12.2071 19.373 12.4687 19.5459 12.6431 19.8054C14.4741 21.3622 16.5668 22.4865 18.921 23.0919C19.1826 23.1784 19.5313 23.1784 19.7929 23.2649C20.0545 23.2649 20.4033 23.2649 20.6649 23.2649C21.1008 23.2649 21.624 23.0919 21.9728 22.9189C22.2343 22.7459 22.4087 22.7459 22.5831 22.573L22.7575 22.4C22.9319 22.227 23.1063 22.1405 23.2807 21.9676C23.455 21.7946 23.6294 21.6216 23.7166 21.4486C23.891 21.1027 23.9782 20.6703 24.0654 20.2378C24.0654 20.0649 24.0654 19.8054 24.0654 19.6324C24.0654 19.6324 23.9782 19.5459 23.8038 19.4595Z" fill="white"/>
</svg>
